/* XPM */
static const char *add_16x16_xpm[] = {
"16 16 120 2",
"  	c None",
". 	c #84B66E",
"+ 	c #80B36A",
"@ 	c #7CB167",
"# 	c #77AE63",
"$ 	c #87B871",
"% 	c #A4CE94",
"& 	c #CBE6C3",
"* 	c #D4EBCF",
"= 	c #CEE9C9",
"- 	c #B8DDAF",
"; 	c #7FB96D",
"> 	c #69A558",
", 	c #87B870",
"' 	c #BBDCAF",
") 	c #E0F2DC",
"! 	c #BDE4B6",
"~ 	c #A5DB9B",
"{ 	c #A0D996",
"] 	c #AFDFA5",
"^ 	c #C5E8C0",
"/ 	c #8AC279",
"( 	c #5F9E50",
"_ 	c #B7DAAA",
": 	c #DCF1D8",
"< 	c #9DD892",
"[ 	c #93CD88",
"} 	c #8ECC84",
"| 	c #96D48B",
"1 	c #95D48A",
"2 	c #8ED283",
"3 	c #B7E0AF",
"4 	c #7DB96B",
"5 	c #569848",
"6 	c #97C785",
"7 	c #D7EED2",
"8 	c #A0D995",
"9 	c #94D38A",
"0 	c #89C87F",
"a 	c #FFFFFF",
"b 	c #85CD79",
"c 	c #7CC36B",
"d 	c #7EC76F",
"e 	c #B5DFAC",
"f 	c #579E45",
"g 	c #83B56D",
"h 	c #B6DDAC",
"i 	c #AFDFA6",
"j 	c #8CCB81",
"k 	c #86C97C",
"l 	c #79BD6E",
"m 	c #6AAC5B",
"n 	c #77BC60",
"o 	c #73BA5C",
"p 	c #99D18B",
"q 	c #92C580",
"r 	c #478E3C",
"s 	c #7EB269",
"t 	c #BEE2B6",
"u 	c #97D58B",
"v 	c #86C97A",
"w 	c #70B859",
"x 	c #7EC169",
"y 	c #AAD49D",
"z 	c #428B38",
"A 	c #7AAF65",
"B 	c #B3DDA9",
"C 	c #8ACF7D",
"D 	c #81CC75",
"E 	c #7DBE67",
"F 	c #ABD49C",
"G 	c #3D8834",
"H 	c #75AC61",
"I 	c #98CC8A",
"J 	c #96D389",
"K 	c #7AC66B",
"L 	c #70C163",
"M 	c #65AB55",
"N 	c #72B95B",
"O 	c #97CC85",
"P 	c #8DBE7B",
"Q 	c #398530",
"R 	c #68AB53",
"S 	c #B4DDAA",
"T 	c #79C164",
"U 	c #71BE5F",
"V 	c #6EB558",
"W 	c #74B75C",
"X 	c #B4DAA6",
"Y 	c #438F38",
"Z 	c #66A356",
"` 	c #7DB96A",
" .	c #B2DBA8",
"..	c #6FB559",
"+.	c #6FB558",
"@.	c #74B75B",
"#.	c #B3D9A5",
"$.	c #6CAA5A",
"%.	c #34822C",
"&.	c #5D9C4D",
"*.	c #78B464",
"=.	c #B5DBA8",
"-.	c #98CC87",
";.	c #7DBC66",
">.	c #7CBA64",
",.	c #98CB86",
"'.	c #B4D9A5",
").	c #6BAA58",
"!.	c #34812C",
"~.	c #539645",
"{.	c #509941",
"].	c #8FC27D",
"^.	c #A6D096",
"/.	c #A6CF96",
"(.	c #89BE78",
"_.	c #428D36",
":.	c #448C3A",
"<.	c #408936",
"[.	c #3C8732",
"}.	c #37842F",
"                                ",
"            . + @ #             ",
"        $ % & * = - ; >         ",
"      , ' ) ! ~ { ] ^ / (       ",
"    , _ : < [ } | 1 2 3 4 5     ",
"    6 7 8 9 0 a a b c d e f     ",
"  g h i j k l a a m n o p q r   ",
"  s t u v a a a a a a w x y z   ",
"  A B C D a a a a a a w E F G   ",
"  H I J K L M a a w w N O P Q   ",
"    R S T U n a a w V W X Y     ",
"    Z `  .n o w ..+.@.#.$.%.    ",
"      &.*.=.-.;.>.,.'.).!.      ",
"        ~.{.].^./.(._.!.        ",
"            :.<.[.}.            ",
"                                "};
