/* XPM */
static const char * bug_16x16_xpm[] = {
"16 16 117 2",
"  	c None",
". 	c #1C231C",
"+ 	c #1B221B",
"@ 	c #59723F",
"# 	c #92B366",
"$ 	c #A1BD77",
"% 	c #23311D",
"& 	c #202621",
"* 	c #192019",
"= 	c #0F1910",
"- 	c #7FA353",
"; 	c #BACE9F",
"> 	c #E6EDD6",
", 	c #C8D8B2",
"' 	c #5D7345",
") 	c #3E3E3E",
"! 	c #3D3D3D",
"~ 	c #222822",
"{ 	c #39492B",
"] 	c #7CA053",
"^ 	c #CCDAB5",
"/ 	c #D7E2BC",
"( 	c #D1DEB2",
"_ 	c #C8D7AF",
": 	c #607944",
"< 	c #3E4139",
"[ 	c #3B3B3B",
"} 	c #1A211A",
"| 	c #64853F",
"1 	c #BECFA3",
"2 	c #C2D29D",
"3 	c #BFD198",
"4 	c #C8D7A6",
"5 	c #D8E3C2",
"6 	c #82A44F",
"7 	c #56663F",
"8 	c #202620",
"9 	c #8FA96A",
"0 	c #B3C88A",
"a 	c #ACC37C",
"b 	c #B4C986",
"c 	c #BED093",
"d 	c #B9C97D",
"e 	c #B5C27F",
"f 	c #8FAB5B",
"g 	c #6B8843",
"h 	c #59713C",
"i 	c #314423",
"j 	c #506A2F",
"k 	c #A7BC84",
"l 	c #99B566",
"m 	c #9FB96C",
"n 	c #A7BF74",
"o 	c #9CB25E",
"p 	c #8DAC4D",
"q 	c #CEDAB7",
"r 	c #DAE4CA",
"s 	c #CDD9BA",
"t 	c #C0CEAA",
"u 	c #90A869",
"v 	c #405529",
"w 	c #597A2D",
"x 	c #9BB76F",
"y 	c #8CAC58",
"z 	c #90AF5B",
"A 	c #819F49",
"B 	c #76983C",
"C 	c #B2C78A",
"D 	c #AFC675",
"E 	c #B3C979",
"F 	c #B9CD92",
"G 	c #BBCE9B",
"H 	c #6A8A3E",
"I 	c #242F1E",
"J 	c #567529",
"K 	c #82A54E",
"L 	c #81A44C",
"M 	c #6F903A",
"N 	c #658530",
"O 	c #9EB873",
"P 	c #94B25B",
"Q 	c #96B359",
"R 	c #99B55A",
"S 	c #9AB65B",
"T 	c #7B9D45",
"U 	c #537326",
"V 	c #4D6B1E",
"W 	c #70933A",
"X 	c #678932",
"Y 	c #5B7C28",
"Z 	c #8CAA5F",
"` 	c #7EA146",
" .	c #7DA143",
"..	c #81A546",
"+.	c #82A546",
"@.	c #789B3E",
"#.	c #516F22",
"$.	c #597829",
"%.	c #567822",
"&.	c #84A558",
"*.	c #70973A",
"=.	c #6D9536",
"-.	c #6F9737",
";.	c #678C30",
">.	c #4C6A1D",
",.	c #2E3E1A",
"'.	c #415D12",
").	c #4B6B19",
"!.	c #62882C",
"~.	c #668F2D",
"{.	c #638B2B",
"].	c #5B8025",
"^.	c #4F701C",
"/.	c #405C12",
"(.	c #3C580D",
"_.	c #38510F",
":.	c #283816",
"          .         .           ",
"          .         +           ",
"          @ # $ % & * =         ",
"  . .   - ; > , ' ) ! ~ =       ",
"    { ] ^ / ( _ : < ) [ } + .   ",
"    | 1 2 3 4 5 6 7 ) ) 8       ",
"    9 0 a b c d e f g h i       ",
". j k l m n o p q r s t u v     ",
"  w x y z A B C D E F G H I .   ",
"  J K L M N O P Q R S T U       ",
"  V W X Y Z `  ...+.@.#.        ",
"    $.%.&.*.=.=.-.;.>.,.        ",
"    '.).!.~.{.].^./.    .       ",
"        (.(.(._.:.              ",
"                .               ",
"                                "};
