/* XPM */
static const char *close_16x16_xpm[] = {
"16 16 133 2",
"  	c None",
". 	c #EBA39E",
"+ 	c #ECA5A0",
"@ 	c #EBA29D",
"# 	c #EBA09B",
"$ 	c #EA9E98",
"% 	c #E99792",
"& 	c #F0B1A9",
"* 	c #FCD3C2",
"= 	c #FFD6C1",
"- 	c #FFD1BD",
"; 	c #FFCFBB",
"> 	c #FFCEB9",
", 	c #FCC8B7",
"' 	c #ED9F98",
") 	c #EEADA6",
"! 	c #FCD4C4",
"~ 	c #FFC2A3",
"{ 	c #FFAF8B",
"] 	c #FFAB89",
"^ 	c #FFA784",
"/ 	c #FFA07E",
"( 	c #FFAE91",
"_ 	c #FBC3B4",
": 	c #EA938C",
"< 	c #EFACA5",
"[ 	c #FCD1C1",
"} 	c #FFBFA0",
"| 	c #FFAA86",
"1 	c #FFA785",
"2 	c #FFA281",
"3 	c #FF9D7C",
"4 	c #FF9878",
"5 	c #FF906F",
"6 	c #FFA185",
"7 	c #FBBAAC",
"8 	c #E88B83",
"9 	c #EA9A95",
"0 	c #FCCDBC",
"a 	c #FFBB9C",
"b 	c #FFA581",
"c 	c #FF9E7C",
"d 	c #FF9978",
"e 	c #FF9374",
"f 	c #FF8E6F",
"g 	c #FF8969",
"h 	c #FF8060",
"i 	c #FF9378",
"j 	c #FBAD9E",
"k 	c #E06C65",
"l 	c #E99892",
"m 	c #FFCDB8",
"n 	c #FFA07D",
"o 	c #FF9373",
"p 	c #FF8E6E",
"q 	c #FF8365",
"r 	c #FF7E60",
"s 	c #FF7859",
"t 	c #FF704F",
"u 	c #FFAA98",
"v 	c #E06A63",
"w 	c #E7918B",
"x 	c #FFC4B1",
"y 	c #FF9876",
"z 	c #FF7E5F",
"A 	c #FF795A",
"B 	c #FF7355",
"C 	c #FF6E4F",
"D 	c #FF6748",
"E 	c #FFA190",
"F 	c #DE625A",
"G 	c #E68A85",
"H 	c #FFBEAB",
"I 	c #FF8D6D",
"J 	c #FF7455",
"K 	c #FF6F50",
"L 	c #FF694B",
"M 	c #FF6346",
"N 	c #FF5C3F",
"O 	c #FF9B8A",
"P 	c #DC5B53",
"Q 	c #E5847D",
"R 	c #FFBBA6",
"S 	c #FF7F5F",
"T 	c #FF6E50",
"U 	c #FF6446",
"V 	c #FF5E41",
"W 	c #FF593B",
"X 	c #FF4F31",
"Y 	c #FF9987",
"Z 	c #DB554D",
"` 	c #E37871",
" .	c #FCB2A2",
"..	c #FF8F73",
"+.	c #FF5A3C",
"@.	c #FF5537",
"#.	c #FF4B2C",
"$.	c #FF674E",
"%.	c #FA9384",
"&.	c #D84840",
"*.	c #E78179",
"=.	c #FBAD9F",
"-.	c #FF8167",
";.	c #FF5E40",
">.	c #FF593C",
",.	c #FF5033",
"'.	c #FD4628",
").	c #FD654A",
"!.	c #F69689",
"~.	c #DE5E54",
"{.	c #E4756C",
"].	c #FAA596",
"^.	c #FF745A",
"/.	c #FF5032",
"(.	c #FF4F30",
"_.	c #FE492C",
":.	c #FA4225",
"<.	c #F96048",
"[.	c #F49486",
"}.	c #DD5951",
"|.	c #E46C63",
"1.	c #FA9789",
"2.	c #FF9584",
"3.	c #FC907F",
"4.	c #FA8E7D",
"5.	c #F78D7D",
"6.	c #F28B7D",
"7.	c #D94B44",
"8.	c #DA4F47",
"9.	c #D94B43",
"0.	c #D74840",
"a.	c #D8473E",
"b.	c #D53E35",
"                                ",
"          . + @ # $ %           ",
"        & * = - ; > , '         ",
"      ) ! ~ { ] ^ / ( _ :       ",
"    < [ } | 1 2 3 4 5 6 7 8     ",
"  9 0 a b 2 c d e f g h i j k   ",
"  l m n 3 d o p g q r s t u v   ",
"  w x y o p g q z A B C D E F   ",
"  G H I g q z A J K L M N O P   ",
"  Q R S z A B T L U V W X Y Z   ",
"  `  ...t C L U V +.@.#.$.%.&.  ",
"    *.=.-.;.;.>.@.,.'.).!.~.    ",
"      {.].^./.(._.:.<.[.}.      ",
"        |.1.2.3.4.5.6.}.        ",
"          7.8.9.0.a.b.          ",
"                                "};
