/* XPM */
static const char *project_16x16_xpm[] = {
"16 16 133 2",
"  	c None",
". 	c #A2C1EF",
"+ 	c #9FC0ED",
"@ 	c #9DBEEB",
"# 	c #9ABCEB",
"$ 	c #96BAE9",
"% 	c #93B7E7",
"& 	c #90B5E6",
"* 	c #8CB2E4",
"= 	c #88AFE2",
"- 	c #84ACE0",
"; 	c #80A9DD",
"> 	c #7DA5DC",
", 	c #7AA3DA",
"' 	c #A1C1EE",
") 	c #F4F7FB",
"! 	c #74A0D7",
"~ 	c #9EBFEC",
"{ 	c #FFA465",
"] 	c #FFA364",
"^ 	c #FFA060",
"/ 	c #FF9E5D",
"( 	c #FF9958",
"_ 	c #FF9654",
": 	c #FF904D",
"< 	c #FF8B47",
"[ 	c #FF8442",
"} 	c #FF7F3D",
"| 	c #6F9BD4",
"1 	c #9BBDEB",
"2 	c #FFA464",
"3 	c #FFBD79",
"4 	c #FFBB75",
"5 	c #FFB971",
"6 	c #FFB86D",
"7 	c #FFB368",
"8 	c #FFB061",
"9 	c #FFAB5A",
"0 	c #FFA754",
"a 	c #FF7D3B",
"b 	c #6A97D1",
"c 	c #98BAE9",
"d 	c #FFA262",
"e 	c #FFA161",
"f 	c #FF9F5F",
"g 	c #FF9D5C",
"h 	c #FF9A5A",
"i 	c #FF9857",
"j 	c #FF9554",
"k 	c #FF9452",
"l 	c #6493CE",
"m 	c #94B7E7",
"n 	c #A6C3E9",
"o 	c #FFFFFF",
"p 	c #A9C4E8",
"q 	c #AAC6E9",
"r 	c #ACC7E8",
"s 	c #B0C8E8",
"t 	c #EBF1F7",
"u 	c #5F8FCB",
"v 	c #8FB4E5",
"w 	c #F2F6FA",
"x 	c #7AB575",
"y 	c #79B574",
"z 	c #78B473",
"A 	c #71B06C",
"B 	c #6EAF6A",
"C 	c #6DAD68",
"D 	c #CDEFD5",
"E 	c #598AC8",
"F 	c #8CB1E3",
"G 	c #F1F6FA",
"H 	c #9BD494",
"I 	c #95D28E",
"J 	c #73B16F",
"K 	c #6FAF6B",
"L 	c #C9EDD1",
"M 	c #5586C6",
"N 	c #87AEE1",
"O 	c #F0F4FA",
"P 	c #75B370",
"Q 	c #74B26F",
"R 	c #72B16E",
"S 	c #ABE3B9",
"T 	c #5486C4",
"U 	c #82AADF",
"V 	c #EFF3F9",
"W 	c #B7CEEA",
"X 	c #BBD0EB",
"Y 	c #BACFEA",
"Z 	c #F2F6FB",
"` 	c #F0F3FA",
" .	c #CBD8EB",
"..	c #DDE6F2",
"+.	c #5F8DC8",
"@.	c #7EA8DD",
"#.	c #BAD0EB",
"$.	c #BDD1EB",
"%.	c #B5CDEA",
"&.	c #CCD9EB",
"*.	c #DBE4F1",
"=.	c #F1F4FA",
"-.	c #5C8AC6",
";.	c #7AA4D9",
">.	c #EEF3F9",
",.	c #BED2EB",
"'.	c #BFD3EB",
").	c #C0D3EB",
"!.	c #ADC7EA",
"~.	c #CDD9EC",
"{.	c #F0F3F9",
"].	c #EFF2F9",
"^.	c #5F8CC6",
"/.	c #75A1D7",
"(.	c #EDF2F8",
"_.	c #EAF0F7",
":.	c #E6EDF6",
"<.	c #E2EAF4",
"[.	c #DEE7F3",
"}.	c #D8E2F0",
"|.	c #C8D6EA",
"1.	c #DCE5F2",
"2.	c #F2F5FA",
"3.	c #5D8AC5",
"4.	c #729ED6",
"5.	c #6E99D3",
"6.	c #6896D1",
"7.	c #6392CE",
"8.	c #5E8ECB",
"9.	c #5B8AC9",
"0.	c #5687C7",
"a.	c #5284C3",
"b.	c #4277BB",
"                                ",
"    . + @ # $ % & * = - ; > ,   ",
"  ' ) ) ) ) ) ) ) ) ) ) ) ) !   ",
"  ~ ) { ] ^ / ( _ : < [ } ) |   ",
"  1 ) 2 3 4 5 6 7 8 9 0 a ) b   ",
"  c ) { ] d e f g h i j k ) l   ",
"  m ) n o p o q o r o s o t u   ",
"  v w x y x y z z A B C z D E   ",
"  F G x H x H y I J I K I L M   ",
"  N O x x x x x z P Q R z S T   ",
"  U V W o X o X o Y Z `  ...+.  ",
"  @.V #.X X X X $.%.O &.*.=.-.  ",
"  ;.>.,.o '.o ).o !.~.*.{.].^.  ",
"  /.(._.:.<.[.*.}.|.1.=.{.2.3.  ",
"  4.5.6.7.8.9.0.a.a.a.a.a.a.b.  ",
"                                "};
