/* XPM */
static const char *save_16x16_xpm[] = {
"16 16 85 1",
" 	c None",
".	c #373737",
"+	c #383838",
"@	c #3B3B3B",
"#	c #3A3A3A",
"$	c #3E3E3E",
"%	c #DCDCDC",
"&	c #F9FBFE",
"*	c #F6FAFD",
"=	c #EFF6FC",
"-	c #E8F2FA",
";	c #EBF3FB",
">	c #F7FBFD",
",	c #E9F3FA",
"'	c #DDECF8",
")	c #C6C6C6",
"!	c #606060",
"~	c #8E8E8E",
"{	c #636363",
"]	c #ECF4FB",
"^	c #F1F7FC",
"/	c #E0EDF8",
"(	c #D9E9F6",
"_	c #C4C4C4",
":	c #DBDBDB",
"<	c #8B8B8B",
"[	c #EEF5FB",
"}	c #E6F1FA",
"|	c #DAEAF7",
"1	c #848484",
"2	c #CDCDCD",
"3	c #343434",
"4	c #D8D8D8",
"5	c #656565",
"6	c #F4F9FD",
"7	c #D5E7F6",
"8	c #838383",
"9	c #B0B0B0",
"0	c #333333",
"a	c #D7D7D7",
"b	c #8A8A8A",
"c	c #E2EEF9",
"d	c #F3F8FC",
"e	c #808080",
"f	c #AAAAAA",
"g	c #313131",
"h	c #D2D2D2",
"i	c #666666",
"j	c #6C6C6C",
"k	c #696969",
"l	c #7A7A7A",
"m	c #A5A5A5",
"n	c #D1D1D1",
"o	c #858585",
"p	c #7E7E7E",
"q	c #7D7D7D",
"r	c #9F9F9F",
"s	c #303030",
"t	c #818181",
"u	c #797979",
"v	c #989898",
"w	c #2F2F2F",
"x	c #C8C8C8",
"y	c #777777",
"z	c #767676",
"A	c #8F8F8F",
"B	c #2D2D2D",
"C	c #363636",
"D	c #FBFBFB",
"E	c #717171",
"F	c #2C2C2C",
"G	c #C3C3C3",
"H	c #FAFAFA",
"I	c #D7A69A",
"J	c #F6F9FD",
"K	c #6D6D6D",
"L	c #2A2A2A",
"M	c #C0C0C0",
"N	c #E4D1CF",
"O	c #292929",
"P	c #BDBDBD",
"Q	c #272727",
"R	c #B6B6B6",
"S	c #F8FBFE",
"T	c #747474",
" ........+@#.$  ",
".%%&&*=-;*>,')! ",
".%~>>{]-^&^/(_)$",
".:<^^{-[>*}|(123",
".4<}}5}6>['(7890",
".ab//c[>dc(77efg",
".hb{5ijjk5{{{lmg",
".nooooo18epqlqrs",
".2ooooo8tepqluvw",
".x111o1tepquyzAB",
"C)1DDDDDDDDDDEbF",
".G8HIIIIIIIIJK1L",
"+M1HNNNNNNNNJkpO",
".P8HIIIIIIIIJ5uQ",
"CRRDSSSSSSSSSyTQ",
"C3300gswwFLOQQQO"};
